# xmcd
#
# Track frame offsets:
#	150
#	20682
#	46395
#	73395
#	98402
#	127302
#	152882
#	176840
#	198002
#	224870
#	254882
#	286740
#	304032
#
# Disc length: 4403 seconds
#
# Revision: 1
# Processed by: cddbd v1.5.2PL0 Copyright (c) Steve Scherf et al.
# Submitted via: EZCDAudioConverter 8.0.2.1
#
DISCID=ce11310d
DTITLE=Duy Khánh - Tác Phẩm and Tiếng Hát
DYEAR=1988
DGENRE=Miscellaneous
TTITLE0=Duy Khánh, Hương Lan, Mai Hương - Đi từ rượng đồng bao la
TTITLE1=Duy Khánh - Nỗi niềm riêng
TTITLE2=Duy Khánh - Huế đẹp Huế thơ
TTITLE3=Duy Khánh, Hương Lan - Ngày xưa lên năm lên ba
TTITLE4=Duy Khánh - Thư về em gái thành đô
TTITLE5=Duy Khánh - Anh về một chiều mưa
TTITLE6=Duy Khánh - Vùng quê tương lai
TTITLE7=Duy Khánh, Hương Lan - Sao không thấy anh về
TTITLE8=Duy Khánh - Biết trả lời sao
TTITLE9=Duy Khánh - Mưa bay trong đời
TTITLE10=Duy Khánh - Người anh giới tuyến
TTITLE11=Duy Khánh, Hương Lan - Mừng anh chiến sĩ
TTITLE12=Duy Khánh - Giã từ Đà Lạt
EXTD=
EXTT0=
EXTT1=
EXTT2=
EXTT3=
EXTT4=
EXTT5=
EXTT6=
EXTT7=
EXTT8=
EXTT9=
EXTT10=
EXTT11=
EXTT12=
PLAYORDER=
